# xmcd
#
# Track frame offsets: 
#        150
#        30317
#        53827
#        78628
#        98633
#        123774
#        153754
#
# Disc length: 2584 seconds
#
# Revision: 1
# Processed by: cddbd v1.5.2PL0 Copyright (c) Steve Scherf et al.
# Submitted via: ExactAudioCopy v0.99pb5
#
DISCID=430a1607
DTITLE=Nick Cohen Presents Cushty - Cushty
DYEAR=2007
DGENRE=Jazz
TTITLE0=Sun - feat. Rachael Callandine
TTITLE1=LA LA LI, - feat. Rachael Callandine
TTITLE2=Properties of Love - feat. Elisabeth Troy
TTITLE3=Amour - feat. Elisabeth Troy
TTITLE4=LA LA LI, (Anaconda re-mix)
TTITLE5=Sun (Flute mix)
TTITLE6=Sun (Kuniyuki remix)
EXTD=YEAR: 2007
EXTT0=
EXTT1=
EXTT2=
EXTT3=
EXTT4=
EXTT5=
EXTT6=
PLAYORDER=
